Video
ID : 0
Format : MPEG-4 Visual
Format profile : Advanced Simple@L5
Format settings, BVOP : 2
Format settings, QPel : No
Format settings, GMC : No warppoints
Format settings, Matrix : Default (H.263)
Muxing mode : Packed bitstream
Codec ID : XVID
Codec ID/Hint : XviD
Duration : 1h 49mn
Bit rate : 1 226 Kbps
Width : 672 pixels
Height : 282 pixels
Display aspect ratio : 2.40:1
Frame rate : 29.970 fps
Color space : YUV
Chroma subsampling : 4:2:0
Bit depth : 8 bits
Scan type : Progressive
Compression mode : Lossy
Bits/(Pixel*Frame) : 0.216
Stream size : 958 MiB (90%)
Writing library : XviD 64

Audio
ID : 1
Format : MPEG Audio
Format version : Version 1
Format profile : Layer 3
Mode : Joint stereo
Mode extension : MS Stereo
Codec ID : 55
Codec ID/Hint : MP3
Duration : 1h 49mn
Bit rate mode : Constant
Bit rate : 128 Kbps
Channel(s) : 2 channels
Sampling rate : 48.0 KHz
Compression mode : Lossy
Delay relative to video : 6ms
Stream size : 100.0 MiB (9%)
Alignment : Split accross interleaves
Interleave, duration : 33 ms (1.00 video frame)
Interleave, preload duration : 500 ms
Writing library : LAME3.99.4┬¬┬¬┬¬┬¬┬¬┬¬┬¬┬¬┬¬a







 
http://www.imdb.com/title/tt1885265/





Ratings: 2.7/10 from 895 users Metascore: 43/100 
Reviews: 11 user | 23 critic | 15 from Metacritic.com

Businessman Wesley Deeds is jolted out of his scripted life when he meets Lindsey, a single mother who works on the cleaning crew in his office building.
Director:
Tyler Perry
Writer:
Tyler Perry (screenplay)
Stars:
Tyler Perry, Gabrielle Union and Thandie Newton 






Source Used




Kingdom........Thanks



Enjoy




Plenty blah blah filters but screens never show true image..............check out the sample